Coordinates
version=1
nRows=9
nColumns=36
inDegrees=yes

Units are S.I. units (second, meters, Newtons, ...)
If the header above contains a line with 'inDegrees', this indicates whether rotational values are in degrees (yes) or radians (no).

endheader
time	pelvis_tilt	pelvis_list	pelvis_rotation	pelvis_tx	pelvis_ty	pelvis_tz	hip_flexion_r	hip_adduction_r	hip_rotation_r	knee_angle_r	knee_angle_r_beta	ankle_angle_r	subtalar_angle_r	mtp_angle_r	hip_flexion_l	hip_adduction_l	hip_rotation_l	knee_angle_l	knee_angle_l_beta	ankle_angle_l	subtalar_angle_l	mtp_angle_l	lumbar_extension	lumbar_bending	lumbar_rotation	arm_flex_r	arm_add_r	arm_rot_r	elbow_flex_r	pro_sup_r	arm_flex_l	arm_add_l	arm_rot_l	elbow_flex_l	pro_sup_l
      1.69000000	    -33.93567025	      4.17630473	     -7.87189432	     -0.30736389	      0.68819462	     -0.61316893	     98.00651853	     -4.74712388	     -4.97024527	     95.58711013	      1.66830979	     31.82615526	    -10.64279386	     -7.48480507	    100.23694288	    -18.50231677	     -1.20377583	     97.75031445	      1.70606483	     25.93221824	     12.96300019	     -7.48480507	    -51.66131234	      5.32862598	    -28.05801652	     67.27803281	     -0.68169631	     33.62047789	     36.27808404	    110.97065817	    179.52958365	   -103.13100857	    144.37352645	    104.05751129	     92.15785715
      1.70000000	    -34.71402049	      4.49712981	     -6.86144080	     -0.30796393	      0.68491231	     -0.61760066	     99.44149751	     -6.23500089	     -4.48431753	     96.28666297	      1.68051929	     31.90230350	     -9.67089457	     -7.48528303	    101.19462568	    -17.02617893	     -1.54804255	     97.77059074	      1.70641872	     25.45066151	     12.03631533	     -7.48528303	    -52.14191443	      6.33820503	    -29.16606016	     71.49487642	      0.31884735	     34.08273814	     35.73798639	    109.90980860	    179.16703394	    -97.42639712	    142.16694589	    104.25580547	     91.20968882
      1.71000000	    -35.98350054	      4.77213855	     -5.34500943	     -0.30719039	      0.68327768	     -0.62356284	    100.98549041	     -8.32262878	     -4.01288967	     96.64934373	      1.68684927	     31.83542177	     -8.75990316	     -7.50357935	    102.28465861	    -14.87574053	     -2.04246341	     97.32896730	      1.69871094	     24.76415896	     10.99208877	     -7.50357935	    -48.42821996	      1.61036867	     -1.04987032	     52.10119479	    -32.49121805	      8.60091808	     60.84336512	    110.37322974	     89.04943972	    -26.44973526	     45.17130664	     63.07725553	    102.32153600
      1.72000000	    -35.96998515	      5.15329241	     -4.45357253	     -0.30643746	      0.68241121	     -0.62682318	    101.43580578	     -9.57102589	     -3.35409770	     97.24040463	      1.69716523	     31.69459340	     -8.24861222	     -7.50350610	    102.20854444	    -13.67712036	     -2.65901526	     97.31826231	      1.69852410	     24.34003595	     10.46635013	     -7.50350610	    -49.29147238	      2.03046607	     -1.99279080	     56.45571067	    -33.06977332	     10.16125458	     61.01056280	    110.62119612	     93.92769149	    -24.87761108	     47.13683116	     61.44457239	    102.39293308
      1.73000000	    -35.56715314	      5.18088385	     -4.53040706	     -0.30495898	      0.68237508	     -0.62684896	    101.13466417	     -9.62089660	     -3.29617441	     97.54743041	      1.70252384	     31.56032943	     -8.07447008	     -7.50346710	    101.91593188	    -13.77707145	     -2.70566701	     97.66500098	      1.70457583	     23.99097096	     10.47263467	     -7.50346710	    -50.57160978	      1.97543531	     -2.05583113	     60.47775955	    -33.18490597	     11.01149135	     61.60046006	    110.72775480	     98.15669219	    -23.21892749	     48.00714422	     60.05015912	    102.34881950
      1.74000000	    -35.37849056	      5.05968494	     -4.89635709	     -0.30370885	      0.68169058	     -0.62604897	    100.95960046	     -9.27016911	     -3.45956928	     97.75970893	      1.70622880	     31.56305420	     -8.00826705	     -7.50341743	    102.02419988	    -14.23489821	     -2.46838211	     98.21382295	      1.71415458	     23.78051514	     10.44250687	     -7.50341743	    -51.39180775	      1.70391273	     -1.67514159	     64.15746272	    -33.59007547	     12.62459946	     61.95727240	    110.81450353	    102.19882313	    -21.30433102	     49.67460791	     58.13170832	    102.30224431
      1.75000000	    -35.53518356	      5.03213064	     -4.83787543	     -0.30246248	      0.68093040	     -0.62658461	    101.13645765	     -9.43229421	     -3.50109512	     97.94942520	      1.70953997	     31.48742305	     -7.88206916	     -7.50337085	    102.34286092	    -14.08101182	     -2.40524439	     98.51476028	      1.71940693	     23.55723394	     10.21634959	     -7.50337085	    -51.71522375	      1.86745710	     -1.60775225	     67.53327121	    -33.74400928	     14.03682537	     62.74285218	    110.85210990	    105.36692573	    -19.62521200	     50.45561947	     56.71587495	    102.22061946
      1.76000000	    -35.77697163	      5.07400269	     -4.83868061	     -0.30116634	      0.68045040	     -0.62739696	    101.41572575	     -9.50562687	     -3.45583643	     98.07989399	      1.71181708	     31.37506931	     -7.71007884	     -7.50331440	    102.66438808	    -13.91400504	     -2.44510566	     98.73307544	      1.72321725	     23.31691046	      9.60022707	     -7.50331440	    -51.84619830	      1.96300503	     -1.56005685	     70.69949668	    -33.86198428	     15.75215731	     63.50750881	    110.84877406	    108.02929808	    -18.01134753	     50.81765193	     55.64115947	    102.15067972
      1.77000000	    -36.21151213	      5.06923563	     -4.97958461	     -0.29983052	      0.67987382	     -0.62802896	    101.88460816	     -9.38115318	     -3.46159875	     98.14677910	      1.71298445	     31.17917974	     -7.57270168	     -7.50329656	    103.17497350	    -13.84666529	     -2.32072275	     98.93022176	      1.72665810	     23.30203252	      9.32436261	     -7.50329656	    -51.64245108	      2.07559464	     -1.59735449	     73.29541487	    -33.18928415	     16.36206475	     64.65084220	    110.91468903	    109.96438105	    -16.85664340	     50.40003703	     55.31060730	    102.08732515
